<svg width="25" height="25" viewBox="0 0 25 25" fill="none" xmlns="http://www.w3.org/2000/svg">
<g clip-path="url(#clip0_5_32)">
<path d="M10.9375 0C4.90625 0 0 4.90625 0 10.9375C0 16.9688 4.90625 21.875 10.9375 21.875C12.7812 21.875 14.5937 21.4375 16.125 20.5938C16.2477 20.7414 16.3836 20.8773 16.5312 21L19.6562 24.125C19.9448 24.4497 20.2967 24.712 20.6903 24.8958C21.0839 25.0795 21.5108 25.1809 21.945 25.1937C22.3792 25.2065 22.8115 25.1304 23.2152 24.9701C23.6189 24.8098 23.9856 24.5686 24.2927 24.2615C24.5999 23.9543 24.841 23.5876 25.0013 23.1839C25.1616 22.7802 25.2377 22.348 25.225 21.9138C25.2122 21.4796 25.1108 21.0526 24.927 20.659C24.7432 20.2654 24.4809 19.9136 24.1562 19.625L21.0312 16.5C20.879 16.3477 20.7115 16.2116 20.5312 16.0938C21.375 14.5625 21.9062 12.7812 21.9062 10.9062C21.9062 4.875 17 -0.03125 10.9688 -0.03125L10.9375 0ZM10.9375 3.125C15.2812 3.125 18.75 6.59375 18.75 10.9375C18.75 13 18 14.9062 16.6875 16.3125C16.6562 16.3438 16.625 16.375 16.5938 16.4062C16.4461 16.5289 16.3102 16.6649 16.1875 16.8125C14.8125 18.0625 12.9375 18.7813 10.9062 18.7813C6.5625 18.7813 3.09375 15.3125 3.09375 10.9688C3.09375 6.625 6.5625 3.15625 10.9062 3.15625L10.9375 3.125Z" fill="white"/>
</g>
<defs>
<clipPath id="clip0_5_32">
<rect width="25" height="25" fill="white"/>
</clipPath>
</defs>
</svg>
