<svg width="25" height="25" viewBox="0 0 25 25" fill="none" xmlns="http://www.w3.org/2000/svg">
<path d="M12.5 20.3726C11.9892 20.3726 11.5745 20.7873 11.5745 21.2981V24.0745C11.5745 24.5853 11.9892 25 12.5 25C13.0108 25 13.4255 24.5853 13.4255 24.0745V21.2981C13.4255 20.7873 13.0108 20.3726 12.5 20.3726ZM12.5 0C11.9892 0 11.5745 0.414664 11.5745 0.925481V3.70192C11.5745 4.21274 11.9892 4.6274 12.5 4.6274C13.0108 4.6274 13.4255 4.21274 13.4255 3.70192V0.925481C13.4255 0.414664 13.0108 0 12.5 0ZM4.6274 12.5C4.6274 11.9892 4.21274 11.5745 3.70192 11.5745H0.925481C0.414664 11.5745 0 11.9892 0 12.5C0 13.0108 0.414664 13.4255 0.925481 13.4255H3.70192C4.21274 13.4255 4.6274 13.0108 4.6274 12.5ZM24.0745 11.5745H21.2981C20.7873 11.5745 20.3726 11.9892 20.3726 12.5C20.3726 13.0108 20.7873 13.4255 21.2981 13.4255H24.0745C24.5853 13.4255 25 13.0108 25 12.5C25 11.9892 24.5853 11.5745 24.0745 11.5745ZM6.28005 17.7945C6.03365 17.7945 5.79928 17.8906 5.625 18.0649L3.65986 20.03C3.48558 20.2043 3.38942 20.4387 3.38942 20.6851C3.38942 20.9315 3.48558 21.1659 3.65986 21.3401C3.83413 21.5144 4.06851 21.6106 4.3149 21.6106C4.5613 21.6106 4.79567 21.5144 4.96995 21.3401L6.9351 19.375C7.29567 19.0144 7.29567 18.4255 6.9351 18.0649C6.76082 17.8906 6.52644 17.7945 6.28005 17.7945ZM18.72 7.20553C18.9663 7.20553 19.2007 7.10937 19.375 6.9351L21.3401 4.96995C21.5144 4.79567 21.6106 4.5613 21.6106 4.3149C21.6106 4.06851 21.5144 3.83413 21.3401 3.65986C21.1659 3.48558 20.9315 3.38942 20.6851 3.38942C20.4387 3.38942 20.2043 3.48558 20.03 3.65986L18.0649 5.625C17.8906 5.79928 17.7945 6.03365 17.7945 6.28005C17.7945 6.52644 17.8906 6.76082 18.0649 6.9351C18.2392 7.10937 18.4736 7.20553 18.72 7.20553ZM4.96995 3.65986C4.79567 3.48558 4.5613 3.38942 4.3149 3.38942C4.06851 3.38942 3.83413 3.48558 3.65986 3.65986C3.48558 3.83413 3.38942 4.06851 3.38942 4.3149C3.38942 4.5613 3.48558 4.79567 3.65986 4.96995L5.625 6.9351C5.79928 7.10937 6.03365 7.20553 6.28005 7.20553C6.52644 7.20553 6.76082 7.10937 6.9351 6.9351C7.10937 6.76082 7.20553 6.52644 7.20553 6.28005C7.20553 6.03365 7.10937 5.79928 6.9351 5.625L4.96995 3.65986ZM19.375 18.0649C19.2007 17.8906 18.9663 17.7945 18.72 17.7945C18.4736 17.7945 18.2392 17.8906 18.0649 18.0649C17.7043 18.4255 17.7043 19.0144 18.0649 19.375L20.03 21.3401C20.2043 21.5144 20.4387 21.6106 20.6851 21.6106C20.9315 21.6106 21.1659 21.5144 21.3401 21.3401C21.5144 21.1659 21.6106 20.9315 21.6106 20.6851C21.6106 20.4387 21.5144 20.2043 21.3401 20.03L19.375 18.0649ZM12.5 6.73077C9.32091 6.73077 6.73077 9.32091 6.73077 12.5C6.73077 15.6791 9.32091 18.2692 12.5 18.2692C15.6791 18.2692 18.2692 15.6791 18.2692 12.5C18.2692 9.32091 15.6791 6.73077 12.5 6.73077Z" fill="white"/>
</svg>
